PathFileType	4	(X/Y/Z)	C:/Users/beibeiliu/ov580/test_trc/User3\sequence.20_training_dense_left.trc
DataRate	CameraRate	NumFrames	NumMarkers	Units	OrigDataRate	OrigDataStartFrame	OrigNumFrames
120	120	13	19	mm	120	1	346
Frame#	Time	ThumbCMC			ThumbMCP			ThumbIP			ThumbTip			IndexMCP			IndexPIP			IndexTip			MiddleMCP			MiddlePIP			MiddleTip			RingMCP			RingPIP			RingTip			PinkyMCP			PinkyPIP			PinkyTip			BackHand1			BackHand2			BackHand3	
		X0	Y0	Z0	X1	Y1	Z1	X2	Y2	Z2	X3	Y3	Z3	X4	Y4	Z4	X5	Y5	Z5	X6	Y6	Z6	X7	Y7	Z7	X8	Y8	Z8	X9	Y9	Z9	X10	Y10	Z10	X11	Y11	Z11	X12	Y12	Z12	X13	Y13	Z13	X14	Y14	Z14	X15	Y15	Z15	X16	Y16	Z16	X17	Y17	Z17	X18	Y18	Z18	
0	0	-190.783	-40.593	44.093	-173.506	-52.7995	22.5245	-156.346	-62.7889	-1.48964	-150.536	-73.7856	-25.5886	-203.125	-25.1536	-33.8565	-195.288	-29.9371	-61.1678	-191.543	-45.1461	-89.7937	-223.946	-23.1645	-42.9414	-222.792	-31.6032	-73.0514	-223.216	-56.2437	-97.7855	-241.879	-27.3403	-38.4407	-243.322	-32.9139	-62.3895	-245.236	-52.0965	-85.288	-266.247	-35.4999	-24.7496	-268.225	-42.3433	-44.3146	-265.286	-57.0812	-66.4788	-246.925	-14.1181	12.2411	-251.155	-12.8159	46.9102	-216.651	-13.9551	30.0251	
1	0.00833333	-193.375	-40.9393	41.1753	-173.501	-52.0532	20.9626	-162.679	-62.5639	-2.70011	-153	-74.696	-25.3568	-204.774	-25.167	-35.9409	-198.137	-30.8262	-66.0871	-195.081	-46.9085	-90.7615	-224.121	-23.4858	-46.0802	-222.695	-30.7806	-71.4933	-224.128	-56.9494	-98.2045	-247.369	-26.6743	-37.555	-243.057	-33.6687	-63.1745	-244.749	-55.6856	-89.668	-265.153	-35.9713	-21.132	-268.811	-44.1725	-49.907	-269.064	-56.3259	-67.4872	-250.703	-15.5477	15.0535	-251.248	-11.8951	43.3976	-216.994	-14.9493	27.5919	
2	0.0166667	-194.049	-41.5348	42.9418	-175.895	-52.1107	23.288	-159.282	-63.4357	-5.49942	-154.835	-73.5351	-21.2837	-199.831	-25.8286	-39.3037	-198.752	-30.8066	-63.8905	-191.557	-44.8656	-87.3265	-226.852	-22.7315	-42.9525	-223.255	-31.5127	-72.4206	-221.213	-55.4613	-97.2475	-242.627	-26.7149	-35.0229	-243.382	-35.6473	-66.9954	-245.915	-55.0426	-88.6003	-266.467	-34.553	-22.7839	-269.371	-43.2583	-47.9091	-267.291	-57.7189	-66.1629	-251.41	-14.7322	14.3837	-250.802	-13.4961	43.0851	-218.902	-15.1589	30.2328	
3	0.025	-190.037	-40.6739	38.7811	-175.946	-51.6301	20.2186	-160.695	-62.3509	-3.6296	-152.699	-72.8439	-19.5157	-202.503	-25.7005	-38.7024	-194.335	-31.3273	-66.8009	-196.908	-43.4413	-86.5275	-224.479	-22.7455	-41.2996	-223.551	-32.1466	-74.0892	-224.023	-55.4548	-97.5901	-241.943	-26.0528	-37.3754	-244.371	-34.1739	-65.7192	-244.09	-50.3516	-85.2437	-262.035	-35.2611	-20.5358	-264.915	-40.9242	-47.1972	-267.63	-55.0954	-67.504	-249.203	-15.5605	11.8338	-254.167	-12.6977	42.0322	-216.887	-14.4771	27.5034	
4	0.0333333	-195.006	-41.3356	42.4487	-174.569	-51.7938	19.0988	-158.074	-62.6877	-1.50349	-149.81	-73.172	-20.6403	-199.77	-25.2725	-34.7844	-195.906	-29.1687	-61.7251	-191.946	-42.0395	-86.262	-221.759	-22.0468	-46.4915	-220.597	-33.9551	-75.2417	-221.18	-53.8735	-96.7528	-246.706	-26.7386	-36.662	-242.899	-34.3385	-66.7556	-245.737	-54.2239	-87.6	-267.155	-35.018	-23.5218	-264.046	-40.8849	-45.2184	-267.752	-55.2277	-67.4031	-249.899	-13.7984	12.7981	-248.358	-12.1414	41.2718	-217.684	-15.5623	27.8043	
5	0.0416667	-193.914	-41.3711	38.5696	-175.529	-51.6137	20.0578	-160.181	-62.177	-5.17493	-149.468	-73.5704	-21.6521	-198.84	-25.8971	-33.4131	-198.413	-30.9105	-65.3231	-192.388	-42.1834	-85.985	-225.69	-23.2311	-45.5243	-221.059	-32.18	-73.0259	-224.176	-55.0801	-97.0152	-247.073	-26.6466	-36.6981	-245.964	-34.6966	-66.3594	-247.485	-52.0876	-85.5791	-264.848	-34.1579	-22.7751	-264.891	-40.2995	-43.5526	-268.42	-56.7562	-65.317	-246.568	-14.3875	16.5464	-250.697	-12.9932	43.2923	-214.295	-15.9991	29.4468	
6	0.05	-191.631	-40.754	39.1571	-173.21	-51.8306	19.4873	-161.951	-63.3114	-0.806326	-152.384	-72.7635	-20.68	-203.03	-25.4285	-38.7	-195.346	-30.1484	-61.3692	-195.102	-42.4469	-86.3267	-226.876	-23.1675	-46.1593	-221.213	-31.1756	-71.0502	-222.384	-55.9366	-99.0045	-242.94	-27.1378	-34.244	-245.303	-34.0372	-63.6521	-243.957	-54.3036	-88.7837	-267.449	-34.7748	-23.332	-267.056	-43.2578	-48.7664	-268.258	-57.3517	-67.0096	-245.954	-16.5167	16.7558	-252.547	-12.7242	44.7559	-217.84	-13.9415	30.4426	
7	0.0583333	-192.477	-40.5146	43.9856	-174.448	-52.3649	22.6272	-157.839	-62.6485	-4.00859	-149.083	-73.4832	-20.1847	-202.056	-24.8383	-37.256	-194.91	-31.8324	-65.7973	-196.178	-42.3201	-86.6371	-225.169	-23.2867	-45.6329	-222.441	-31.7719	-71.6093	-219.221	-58.542	-99.9499	-242.777	-26.8928	-35.4955	-247.864	-34.7138	-64.0028	-247.002	-52.7004	-85.5892	-266.818	-33.9099	-25.6106	-266.603	-41.5227	-45.3698	-267.067	-59.1984	-68.7257	-251.496	-15.8254	16.5296	-252.527	-12.8884	42.9158	-214.972	-13.2188	29.7473	
8	0.0666667	-192.956	-41.591	41.0804	-175.632	-52.8177	19.6656	-162.751	-62.945	-2.74989	-152.114	-73.5374	-24.2996	-202.231	-24.9904	-34.7656	-196.417	-31.3348	-66.5658	-191.324	-46.0561	-89.72	-224.888	-22.8498	-42.1178	-225.122	-33.3387	-74.7779	-221.663	-56.6896	-98.0023	-244.757	-26.6482	-37.2151	-247.182	-34.1769	-63.724	-243.296	-54.6417	-87.1797	-267.714	-34.8374	-21.0097	-266.819	-41.2326	-44.3761	-268.397	-57.6449	-67.5571	-249.024	-16.7694	14.9965	-253.697	-14.0268	45.9056	-217.378	-15.7131	30.7455	
9	0.075	-195.293	-41.0852	42.3685	-172.044	-52.8531	20.6852	-158.117	-62.6846	-0.51843	-154.928	-73.7821	-20.9879	-200.93	-24.8789	-36.0066	-198.695	-28.9563	-62.2392	-194.641	-42.7239	-88.0091	-223.097	-22.2565	-44.4554	-220.538	-31.5453	-73.0828	-220.364	-55.8365	-96.6488	-241.1	-25.6327	-37.9929	-247.614	-32.1522	-62.7951	-244.473	-53.329	-85.7605	-263.043	-35.0206	-20.0124	-267.31	-42.5716	-47.082	-266.247	-57.4345	-66.2562	-251.766	-15.7432	15.3754	-253.148	-12.8398	41.7345	-216.445	-14.8309	31.4976	
10	0.0833333	-192.621	-39.7048	40.4426	-174.159	-51.4463	20.6906	-159.929	-62.2104	-3.24499	-151.609	-72.7116	-23.7739	-203.118	-24.7395	-37.2613	-195.658	-29.44	-63.0443	-194.884	-44.0979	-89.4959	-224.062	-22.1508	-46.27	-221.067	-31.6886	-71.9438	-223.449	-56.0978	-96.2304	-247.409	-26.4373	-36.6913	-246.58	-32.6298	-63.1998	-243.084	-54.2728	-87.2056	-262.814	-35.2343	-20.6722	-266.305	-41.8365	-47.0814	-265.65	-57.8942	-65.7606	-251.472	-15.6464	15.5683	-252.42	-13.8988	40.6603	-218.37	-13.392	30.0621	
11	0.0916667	-196.39	-40.7566	42.9111	-171.713	-51.293	22.7539	-158.101	-61.1998	-1.63979	-154.801	-71.2959	-21.9615	-201.348	-23.9055	-37.2612	-195.37	-29.4634	-65.0975	-194.508	-41.3926	-86.2227	-224.178	-22.0368	-43.0969	-223.24	-31.8518	-73.8989	-221.625	-58.5936	-98.7421	-245.892	-26.6528	-34.6047	-243.01	-32.9128	-62.248	-245.072	-52.1971	-84.8905	-260.932	-34.1893	-25.5648	-264.338	-41.1356	-44.6842	-267.01	-59.2371	-67.5635	-251.017	-13.9237	13.7567	-254.859	-12.6243	42.6808	-215.377	-15.3032	28.7981	
12	0.1	-195.958	-39.0991	38.7199	-177.434	-51.267	20.4782	-157.929	-61.5053	-1.74683	-150.963	-70.7183	-22.1588	-200.186	-23.2924	-38.1206	-193.003	-28.5938	-63.9926	-192.47	-40.5988	-85.2262	-221.941	-21.5861	-44.7618	-222.224	-32.3213	-74.808	-222.048	-55.0622	-96.3997	-246.925	-25.5808	-36.2916	-241.288	-33.8578	-65.1391	-243.348	-53.6683	-85.5464	-265.007	-34.6841	-21.6228	-265.887	-40.8308	-44.3664	-264.349	-58.3132	-68.5503	-246.552	-15.9243	12.721	-252.141	-13.3555	45.1606	-217.592	-15.2943	31.1652	
